# xmcd
#
# Track frame offsets: 
#        150
#        11195
#        23430
#        36212
#        47542
#        59522
#        70400
#        81057
#        92442
#        105142
#        115632
#        127092
#        138345
#        147962
#        157390
#        169792
#        179410
#        190885
#        199857
#        208547
#        220310
#        231027
#        240532
#        251565
#
# Disc length: 3499 seconds
#
# Revision: 3
# Processed by: cddbd v1.5.2PL0 Copyright (c) Steve Scherf et al.
# Submitted via: ExactAudioCopy v1.0b3
#
DISCID=500da918
DTITLE=Faron Young - Live Fast, Love Hard:
DYEAR=0
DGENRE=Country
TTITLE0=Tattle Tale Tears
TTITLE1=Goin' Steady
TTITLE2=Just Out Of Reach (Of My Two Open Arms)
TTITLE3=Just Married
TTITLE4=If That's The Fashion
TTITLE5=If You Ain't Lovin' (You Ain't Livin')
TTITLE6=I've Got Five Dollars And It's Saturday Night
TTITLE7=A Place For Girls Like You
TTITLE8=In The Chapel In The Moonlight
TTITLE9=Live Fast, Love Hard, Die Young
TTITLE10=Forgive Me Dear
TTITLE11=All Right
TTITLE12=It's A Great Life (If You Don't Weaken)
TTITLE13=Turn Her Down
TTITLE14=Sweet Dreams
TTITLE15=I'm Gonna Live Some Before I Die
TTITLE16=I Miss You Already (And You're Not Even Gone)
TTITLE17=Alone With You
TTITLE18=That's The Way I Feel
TTITLE19=Country Girl
TTITLE20=Face To The Wall
TTITLE21=A World So Full Of Love
TTITLE22=Hello Walls
TTITLE23=Three Days (live radio transcription)
EXTD=Original Capitol recordings 1952-62
EXTT0=
EXTT1=
EXTT2=
EXTT3=
EXTT4=
EXTT5=
EXTT6=
EXTT7=
EXTT8=
EXTT9=
EXTT10=
EXTT11=
EXTT12=
EXTT13=
EXTT14=
EXTT15=
EXTT16=
EXTT17=
EXTT18=
EXTT19=
EXTT20=
EXTT21=
EXTT22=
EXTT23=
PLAYORDER=
